<?xml version="1.0" encoding="UTF-8"?>
<svg version="1.1" xmlns="http://www.w3.org/2000/svg" width="362" height="366">
<path d="M0 0 C0.91731675 -0.00453111 1.8346335 -0.00906223 2.77974772 -0.01373065 C5.83089892 -0.02631621 8.88187028 -0.02475806 11.93304443 -0.02310181 C14.13000211 -0.02909071 16.32695769 -0.03589708 18.52391052 -0.04345703 C24.47655125 -0.06108743 30.42913443 -0.06581117 36.38179874 -0.0670886 C40.10519314 -0.06851244 43.82857302 -0.07278646 47.55196381 -0.07808304 C59.88388695 -0.09562035 72.21577947 -0.1049245 84.54771462 -0.10342209 C85.54306958 -0.10330222 85.54306958 -0.10330222 86.55853271 -0.10317993 C87.55511588 -0.10305729 87.55511588 -0.10305729 88.57183203 -0.10293217 C99.33253753 -0.10211973 110.09310291 -0.12125098 120.8537679 -0.14945666 C131.92711836 -0.17825081 143.00039725 -0.19162791 154.07378554 -0.19026911 C160.28086486 -0.18976038 166.48778551 -0.19539491 172.69483185 -0.21662521 C178.53573179 -0.23605868 184.3763225 -0.23609698 190.21723366 -0.22159195 C192.35326148 -0.2195091 194.48930893 -0.22417323 196.62530327 -0.23631287 C207.94410517 -0.29644341 217.86183427 -0.13109982 228.46331787 4.26742554 C229.22718433 4.57826899 229.9910508 4.88911243 230.77806473 5.20937538 C243.84272938 10.84647942 251.62371206 21.73284919 257.42034912 34.23617554 C260.79002202 44.02968179 260.72933633 53.76898396 260.65863037 63.99398804 C260.6548929 65.59395164 260.6520494 67.19391755 260.65005493 68.79388428 C260.64247621 72.97283422 260.62287833 77.15164164 260.60064697 81.33053589 C260.58006332 85.60765659 260.57102663 89.88480067 260.56097412 94.16195679 C260.53962608 102.53051124 260.50556113 110.89895058 260.46331787 119.26742554 C259.62522583 119.29715454 259.62522583 119.29715454 258.77020264 119.32748413 C256.1883437 119.42394743 253.60716395 119.53312366 251.02581787 119.64242554 C250.14732178 119.67336304 249.26882568 119.70430054 248.3637085 119.73617554 C243.21624351 119.96410757 238.44292824 120.55660552 233.45135498 121.85189819 C231.46331787 122.26742554 231.46331787 122.26742554 227.46331787 122.26742554 C227.46331787 122.92742554 227.46331787 123.58742554 227.46331787 124.26742554 C224.81592871 125.72805404 223.56883453 126.26742554 220.46331787 126.26742554 C220.46331787 126.92742554 220.46331787 127.58742554 220.46331787 128.26742554 C218.78363037 129.99398804 218.78363037 129.99398804 216.58831787 131.89242554 C215.869021 132.52406616 215.14972412 133.15570679 214.40863037 133.80648804 C212.46331787 135.26742554 212.46331787 135.26742554 210.46331787 135.26742554 C210.20421631 135.79207397 209.94511475 136.31672241 209.67816162 136.85726929 C208.75285285 138.69301048 207.80302427 140.51641463 206.84222412 142.33383179 C196.37623223 162.47805275 194.03098724 183.40444286 200.33831787 205.32992554 C201.89746832 210.06013009 203.88345998 214.02908757 206.46331787 218.26742554 C206.46331787 219.25742554 206.46331787 220.24742554 206.46331787 221.26742554 C207.12331787 221.26742554 207.78331787 221.26742554 208.46331787 221.26742554 C209.90863037 222.80648804 209.90863037 222.80648804 211.58831787 224.89242554 C219.05282123 233.60357791 227.98761542 238.80996888 239.46331787 240.26742554 C241.98286531 240.35807592 244.50464534 240.39751368 247.02581787 240.39242554 C248.30585693 240.39500366 249.585896 240.39758179 250.90472412 240.40023804 C253.90881626 240.28812044 256.5364634 239.86696742 259.46331787 239.26742554 C262.10407945 241.90818712 260.64895807 249.59392041 260.65081787 253.14242554 C260.66306396 254.33351929 260.67531006 255.52461304 260.68792725 256.75180054 C260.71333779 272.2352942 257.79893948 285.3398243 247.46331787 297.26742554 C246.8780835 297.94676147 246.29284912 298.62609741 245.68988037 299.32601929 C235.7565338 310.04997916 221.96066419 314.82145706 207.56811142 315.6342144 C201.99807565 315.82600195 196.42980523 315.79771921 190.85736084 315.76913452 C188.7299565 315.77292606 186.60255465 315.77843294 184.47515869 315.7855072 C178.74383719 315.79936839 173.01281903 315.78835877 167.28151464 315.77179599 C161.25830239 315.75785522 155.23510615 315.76441565 149.21188354 315.76792908 C139.1031002 315.77062368 128.99443611 315.7572188 118.88568115 315.73397827 C107.22717002 315.70735897 95.56885796 315.7056289 83.91032684 315.71736664 C72.65494566 315.72817414 61.39963593 315.72193496 50.14426041 315.70781136 C45.37189148 315.70207877 40.5995753 315.70211262 35.82720566 315.70687675 C30.20126681 315.71167599 24.57554385 315.70142356 18.949646 315.6799221 C16.89467217 315.67439456 14.83967742 315.67385147 12.7847023 315.67887497 C-6.85286685 315.72083312 -24.40818301 313.99986219 -39.28668213 299.66976929 C-50.89777028 287.2725137 -54.69486479 272.77613052 -54.67712402 256.16143799 C-54.68009515 255.27834965 -54.68306627 254.39526131 -54.68612742 253.48541272 C-54.69475724 250.5440882 -54.6963178 247.60280465 -54.69781494 244.66146851 C-54.70244717 242.54509902 -54.70747238 240.42873037 -54.71286011 238.31236267 C-54.72594723 232.57447638 -54.73242188 226.83660178 -54.73687077 221.09870291 C-54.73980751 217.50915083 -54.74391345 213.91960191 -54.74837494 210.33005142 C-54.76204028 199.08535842 -54.7717116 187.84067267 -54.77557683 176.59597194 C-54.78005507 163.64129009 -54.79759622 150.68671387 -54.82657743 137.73206413 C-54.84823434 127.7011916 -54.85828325 117.6703487 -54.85961795 107.63945305 C-54.86066311 101.65647381 -54.86650947 95.673594 -54.88443756 89.6906395 C-54.9009876 84.05827351 -54.9030402 78.42608099 -54.89429855 72.79369926 C-54.89353188 70.73549495 -54.89782168 68.67728105 -54.90775681 66.61910057 C-54.98995865 48.51720451 -53.54568404 32.90253126 -42.22418213 17.95492554 C-30.11369405 5.84443746 -17.07722992 -0.06293778 0 0 Z M11.46331787 80.26742554 C12.35986128 82.58378344 12.35986128 82.58378344 15.33831787 83.57992554 C18.88512648 85.49520219 19.88262923 86.60688343 21.46331787 90.26742554 C22.67432737 96.53750539 22.60441707 102.74941269 22.5927124 109.11849976 C22.59446472 110.29500092 22.59621704 111.47150208 22.59802246 112.68365479 C22.60241461 116.56315599 22.59951185 120.44261139 22.59613037 124.32211304 C22.59635327 127.02581824 22.59777359 129.72952264 22.59902954 132.43322754 C22.60084591 138.0972035 22.59845943 143.7611664 22.59368896 149.42514038 C22.58825263 155.95470602 22.59000658 162.4842404 22.59551537 169.01380527 C22.60006798 174.63697318 22.6006864 180.26013174 22.5980767 185.8833009 C22.59652504 189.23417881 22.59668737 192.58503038 22.59961319 195.93590927 C22.60216219 199.67648152 22.59826718 203.41699441 22.5927124 207.15756226 C22.59473663 208.25499756 22.59676086 209.35243286 22.59884644 210.48312378 C22.54908819 228.63688584 22.54908819 228.63688584 18.46331787 233.26742554 C16.16475332 234.531892 13.94908461 235.37630161 11.46331787 236.26742554 C11.46331787 236.59742554 11.46331787 236.92742554 11.46331787 237.26742554 C15.15031275 237.46588334 18.83791409 237.64921156 22.52581787 237.82992554 C23.56415771 237.88599976 24.60249756 237.94207397 25.67230225 237.99984741 C31.10467402 238.25853178 36.11536272 238.29150206 41.46331787 237.26742554 C39.48621031 235.94935383 37.46392643 234.69634471 35.40081787 233.51742554 C31.79430665 230.75499141 31.4856986 229.66356941 30.46331787 225.26742554 C30.16360021 221.33785789 30.15213819 217.41852584 30.14447021 213.47885132 C30.13442459 212.29779312 30.12437897 211.11673492 30.11402893 209.89988708 C30.08850094 206.67513027 30.07160693 203.45046892 30.0586009 200.22564173 C30.04293006 196.85034886 30.01615252 193.47514422 29.99057007 190.09991455 C29.94385207 183.71464876 29.9070743 177.32936624 29.87389719 170.94401729 C29.83562636 163.67189419 29.78622927 156.39985985 29.73591304 149.12781167 C29.63269705 134.1744153 29.54340319 119.22096503 29.46331787 104.26742554 C30.12331787 104.26742554 30.78331787 104.26742554 31.46331787 104.26742554 C31.64149551 104.82457245 31.81967316 105.38171936 32.00325012 105.95574951 C33.69989395 111.16572834 35.60327811 116.21413347 37.77191162 121.24398804 C38.09058701 121.99122131 38.40926239 122.73845459 38.7375946 123.5083313 C39.78875251 125.97109903 40.84481442 128.43173212 41.90081787 130.89242554 C42.65004974 132.64568493 43.39890167 134.39910672 44.1473999 136.15267944 C45.74479975 139.89407053 47.3439532 143.63470522 48.9442749 147.37484741 C52.82433533 156.44655399 56.68457132 165.52670316 60.54656982 174.60610962 C61.83275161 177.62934178 63.11962143 180.65228022 64.40667725 183.67514038 C67.94682197 191.99094368 71.48577524 200.30717172 74.99847412 208.63461304 C75.75281738 210.42246216 75.75281738 210.42246216 76.5223999 212.24642944 C77.39334536 214.31318949 78.2629846 216.3805009 79.13079834 218.44857788 C81.79508247 224.77468512 84.59391595 231.03174906 87.46331787 237.26742554 C88.45331787 237.26742554 89.44331787 237.26742554 90.46331787 237.26742554 C92.1945236 233.35165713 93.9228945 229.43464334 95.65081787 225.51742554 C96.13357178 224.4255896 96.61632568 223.33375366 97.1137085 222.20883179 C97.59388428 221.11957397 98.07406006 220.03031616 98.56878662 218.90805054 C99.00344238 217.92352905 99.43809814 216.93900757 99.88592529 215.9246521 C101.67862029 211.76824117 103.41501696 207.59001996 105.1521759 203.41015625 C107.17967328 198.55036347 109.24680725 193.70771542 111.31488037 188.86508179 C112.24972567 186.67320041 113.18453879 184.48130531 114.11932373 182.28939819 C114.60400116 181.15335144 115.08867859 180.01730469 115.58804321 178.84683228 C126.60844275 153.01308432 137.55989945 127.15073959 148.46331787 101.26742554 C149.57071928 114.91532032 149.62690655 128.52311223 149.63128662 142.20883179 C149.63450664 144.59058145 149.63787125 146.97233093 149.64137268 149.3540802 C149.64732131 154.31356262 149.64921663 159.2730277 149.64862061 164.23251343 C149.64851838 170.58076992 149.66225187 176.9289161 149.67939281 183.27714634 C149.69050828 188.18165091 149.69254007 193.08612857 149.69201088 197.99064445 C149.69318854 200.33216678 149.69759826 202.67368985 149.70534325 205.01519966 C149.7151485 208.28107667 149.71226455 211.54671057 149.70623779 214.81259155 C149.7118573 215.77216766 149.71747681 216.73174377 149.7232666 217.72039795 C149.69878508 222.94548288 149.34262079 227.36478732 147.46331787 232.26742554 C145.08050537 234.04476929 145.08050537 234.04476929 142.33831787 235.20492554 C141.42823975 235.60582397 140.51816162 236.00672241 139.58050537 236.41976929 C138.8818335 236.69949585 138.18316162 236.97922241 137.46331787 237.26742554 C140.36650694 238.23515523 142.233735 238.39921901 145.2543335 238.41268921 C146.71099426 238.42225899 146.71099426 238.42225899 148.19708252 238.43202209 C149.24400269 238.43313492 150.29092285 238.43424774 151.36956787 238.43539429 C152.44581421 238.43872269 153.52206055 238.44205109 154.63092041 238.44548035 C156.90724256 238.45054466 159.18357213 238.45288883 161.4598999 238.45272827 C164.94944411 238.45491684 168.43867328 238.47308368 171.92816162 238.49203491 C174.13779595 238.49496846 176.34743179 238.49695351 178.55706787 238.49789429 C179.60398804 238.5050798 180.6509082 238.51226532 181.72955322 238.51966858 C182.7006604 238.51659195 183.67176758 238.51351532 184.67230225 238.51034546 C185.95445618 238.51248299 185.95445618 238.51248299 187.26251221 238.5146637 C189.75337007 238.4050841 189.75337007 238.4050841 192.46331787 236.26742554 C191.34956787 235.68992554 190.23581787 235.11242554 189.08831787 234.51742554 C185.93109658 232.88034783 184.78585972 231.56996529 183.46331787 228.26742554 C183.20884228 225.68644238 183.20884228 225.68644238 183.20262146 222.70838928 C183.19553665 221.57709595 183.18845184 220.44580261 183.18115234 219.28022766 C183.18362976 218.04325638 183.18610718 216.8062851 183.18865967 215.53182983 C183.18354874 214.22575775 183.17843781 212.91968567 183.173172 211.57403564 C183.15978301 207.99330972 183.15920339 204.41268935 183.1617353 200.83194327 C183.16280545 197.84005854 183.1579203 194.84819512 183.15312988 191.85631496 C183.14203424 184.79484926 183.14159707 177.73343675 183.14764404 170.67196655 C183.15367965 163.3953899 183.14138357 156.11900682 183.12007397 148.8424632 C183.1024368 142.58923382 183.09646009 136.33606593 183.09971172 130.08281261 C183.10152195 126.35072971 183.09891487 122.61878478 183.08499718 118.88672447 C183.07004543 114.7214243 183.07940743 110.5565157 183.09100342 106.39120483 C183.08335968 105.16030624 183.07571594 103.92940765 183.06784058 102.66120911 C183.10615894 96.43487438 183.34901746 91.7246587 186.46331787 86.26742554 C189.12602633 83.69347403 192.00079592 82.51778069 195.46331787 81.26742554 C195.46331787 80.93742554 195.46331787 80.60742554 195.46331787 80.26742554 C180.28331787 80.26742554 165.10331787 80.26742554 149.46331787 80.26742554 C143.5106876 94.13269847 137.56795614 108.00129239 131.6842041 121.89587402 C129.93611598 126.02189932 128.18404004 130.14623356 126.43222046 134.27067566 C124.65753486 138.45009493 122.88633094 142.63096164 121.11859131 146.81332397 C119.06280911 151.67628194 117.00009021 156.53625164 114.93334961 161.39456177 C114.1220128 163.30505315 113.31303973 165.21655013 112.50646973 167.12905884 C111.37842773 169.80283446 110.24217647 172.47297581 109.10394287 175.14242554 C108.59551346 176.35555923 108.59551346 176.35555923 108.07681274 177.59320068 C105.6913134 183.15342777 105.6913134 183.15342777 103.46331787 184.26742554 C103.07144287 183.02992554 102.67956787 181.79242554 102.27581787 180.51742554 C100.67893985 175.71929439 98.75836903 171.09625865 96.78363037 166.44320679 C95.44337897 163.21946599 94.19549544 159.97135853 92.96331787 156.70492554 C91.10360046 151.8246112 89.05323954 147.09033297 86.85003662 142.35726929 C84.79319105 137.77426971 82.91802171 133.11855818 81.04974365 128.4559021 C79.65761301 125.01804317 78.19427093 121.6726219 76.49847412 118.37289429 C74.6023606 114.6560035 73.05947925 110.85439112 71.53900146 106.97103882 C69.56199323 102.00204445 67.40944763 97.10820097 65.27581787 92.20492554 C64.82529053 91.16142944 64.37476318 90.11793335 63.9105835 89.04281616 C63.48068115 88.05346069 63.05077881 87.06410522 62.60784912 86.04476929 C62.21959961 85.15007935 61.8313501 84.2553894 61.43133545 83.33358765 C60.63221894 81.32288623 60.63221894 81.32288623 59.46331787 80.26742554 C57.95913048 80.17430664 56.45060431 80.14996526 54.94354248 80.15390015 C53.98262192 80.15397568 53.02170135 80.15405121 52.03166199 80.15412903 C50.46449181 80.16187096 50.46449181 80.16187096 48.86566162 80.16976929 C47.80166641 80.17118423 46.7376712 80.17259918 45.64143372 80.17405701 C42.22786704 80.1796749 38.81436487 80.19223043 35.40081787 80.20492554 C33.09287611 80.20993823 30.78493332 80.21450154 28.47698975 80.21859741 C22.80574361 80.22965014 17.13453535 80.24640567 11.46331787 80.26742554 Z " fill="#000000" transform="translate(76.53668212890625,30.732574462890625)"/>
<path d="M0 0 C5.10863896 -0.0246501 10.21724359 -0.04283607 15.32592773 -0.05493164 C17.06519168 -0.05997204 18.80445136 -0.0668043 20.54370117 -0.07543945 C23.03825937 -0.08751792 25.53276173 -0.09323108 28.02734375 -0.09765625 C28.80963852 -0.10281754 29.59193329 -0.10797882 30.39793396 -0.11329651 C32.26567114 -0.11349226 34.13329204 -0.06199694 36 0 C37 1 37 1 37.12025452 2.86659241 C37.11803391 3.68155685 37.11581329 4.4965213 37.11352539 5.33618164 C37.11344986 6.2570607 37.11337433 7.17793976 37.11329651 8.12672424 C37.10813522 9.12775681 37.10297394 10.12878937 37.09765625 11.16015625 C37.0962413 12.17975937 37.09482635 13.19936249 37.09336853 14.24986267 C37.08775097 17.52077107 37.0751955 20.79161213 37.0625 24.0625 C37.05748726 26.27408756 37.05292396 28.48567618 37.04882812 30.69726562 C37.03777584 36.13153357 37.02102063 41.56576197 37 47 C35.39419694 47.02390424 33.78829136 47.0409899 32.18237305 47.05517578 C31.28810104 47.06541779 30.39382904 47.07565979 29.47245789 47.08621216 C20.81166107 46.78421875 13.59446319 39.70018269 7.875 33.8125 C1.96243114 24.94364671 -0.03142524 16.82297826 -0.01171875 6.2734375 C-0.01002686 5.09958496 -0.00833496 3.92573242 -0.0065918 2.71630859 C-0.0044165 1.81992676 -0.00224121 0.92354492 0 0 Z " fill="#010101" transform="translate(300,200)"/>
<path d="M0 0 C3.27963748 1.73263867 5.07079637 2.83132838 7.3125 5.75 C7.66162488 8.42812571 7.78198647 10.69236707 7.703125 13.359375 C7.69909668 14.00406738 7.69506836 14.64875977 7.69091797 15.31298828 C7.67007372 17.70895059 7.61422767 20.10450546 7.5625 22.5 C7.48 27.8625 7.3975 33.225 7.3125 38.75 C-4.8975 38.75 -17.1075 38.75 -29.6875 38.75 C-28.6383687 24.06216183 -27.04213406 11.52175261 -16 1.25 C-10.76364962 -2.1465516 -5.79431167 -1.96417345 0 0 Z " fill="#010101" transform="translate(329.6875,156.25)"/>
<path d="M0 0 C17.16 0 34.32 0 52 0 C52 0.33 52 0.66 52 1 C51.40531418 1.01030746 50.81062836 1.02061493 50.19792175 1.03123474 C44.01749631 1.13927885 37.83721728 1.25387866 31.65698242 1.37231445 C29.34939635 1.41566999 27.04177806 1.4573446 24.73413086 1.49731445 C21.42031133 1.55500183 18.10665403 1.61870092 14.79296875 1.68359375 C13.7585112 1.70030624 12.72405365 1.71701874 11.6582489 1.73423767 C10.6974794 1.75418289 9.7367099 1.77412811 8.74682617 1.79467773 C7.47774666 1.81799416 7.47774666 1.81799416 6.18302917 1.84178162 C3.82040513 1.92274103 3.82040513 1.92274103 1 3 C0.67 2.01 0.34 1.02 0 0 Z " fill="#0E0D0E" transform="translate(85,110)"/>
<path d="M0 0 C1.305239 3.91571701 0.32239848 5.03892997 -1.4375 8.6875 C-1.91058594 9.68136719 -2.38367188 10.67523438 -2.87109375 11.69921875 C-3.42990234 12.83810547 -3.42990234 12.83810547 -4 14 C-4.66 13.01 -5.32 12.02 -6 11 C-5.38125 10.113125 -4.7625 9.22625 -4.125 8.3125 C-2.34602259 5.53938816 -1.08916398 3.0859646 0 0 Z " fill="#0F0D0E" transform="translate(223,115)"/>
<path d="M0 0 C2.5 1.6875 2.5 1.6875 5 4 C5.3125 6.75 5.3125 6.75 5 9 C4.34 9 3.68 9 3 9 C0 3.375 0 3.375 0 0 Z " fill="#120F11" transform="translate(303,222)"/>
<path d="M0 0 C1.45606519 4.52092968 0.27032841 7.51648796 -1 12 C-1.33 12 -1.66 12 -2 12 C-2.05395478 10.37536158 -2.09277195 8.75021459 -2.125 7.125 C-2.14820313 6.22007812 -2.17140625 5.31515625 -2.1953125 4.3828125 C-2 2 -2 2 0 0 Z " fill="#151112" transform="translate(275,187)"/>
</svg>
