<?xml version="1.0" encoding="UTF-8"?>
<svg version="1.1" xmlns="http://www.w3.org/2000/svg" width="500" height="500">
<path d="M0 0 C2.62386666 2.22850507 5.15848587 4.53961505 7.68994141 6.87280273 C8.68574219 7.72938477 8.68574219 7.72938477 9.70166016 8.60327148 C19.97882478 17.92219232 26.32171853 30.94228254 30.68994141 43.87280273 C31.00576172 44.80479492 31.32158203 45.73678711 31.64697266 46.69702148 C34.34119154 55.57599898 36.45024818 66.58016438 35.68994141 75.87280273 C33.05657817 78.50616597 31.8606224 78.13578319 28.1862793 78.16333008 C26.45922508 78.18246964 26.45922508 78.18246964 24.69728088 78.20199585 C23.44833542 78.2042215 22.19938995 78.20644714 20.91259766 78.20874023 C19.63517197 78.21539703 18.35774628 78.22205383 17.04161072 78.22891235 C14.33546043 78.23905436 11.62971168 78.24459218 8.92358398 78.2434082 C5.45521646 78.24320492 1.98766749 78.27051075 -1.48050594 78.30495262 C-4.78694111 78.33253202 -8.0933677 78.33136986 -11.39990234 78.33374023 C-13.27028419 78.35529678 -13.27028419 78.35529678 -15.17845154 78.37728882 C-16.91023399 78.36805893 -16.91023399 78.36805893 -18.67700195 78.35864258 C-19.69467148 78.36149261 -20.712341 78.36434265 -21.760849 78.36727905 C-24.31005859 77.87280273 -24.31005859 77.87280273 -26.12745667 75.99746704 C-27.5183559 73.49857549 -27.84972511 71.51927958 -28.18505859 68.68530273 C-29.69566246 59.59750986 -33.73901205 53.5024689 -40.77099609 47.59936523 C-51.1923293 40.51285865 -64.37739712 39.59825128 -76.54052734 41.33374023 C-88.02543434 43.85952832 -95.90752126 49.00073399 -102.31005859 58.87280273 C-107.92783674 68.17119414 -108.39423938 78.52993052 -106.18505859 88.93530273 C-104.85676636 93.95971248 -102.90777713 97.43893756 -99.51708984 101.34936523 C-98.31005859 102.87280273 -98.31005859 102.87280273 -98.31005859 104.87280273 C-97.76736328 105.14092773 -97.22466797 105.40905273 -96.66552734 105.68530273 C-94.97023173 106.53997913 -93.28656935 107.4178737 -91.61083984 108.31030273 C-81.94289745 113.36543601 -74.57743278 114.85548424 -63.73461914 115.41796875 C-38.85166852 116.86208138 -12.83878554 124.56829525 5.68994141 141.87280273 C6.92744141 142.99235352 6.92744141 142.99235352 8.18994141 144.13452148 C26.30324509 161.28141415 36.13480538 185.01583171 36.89306641 209.86889648 C37.14946709 227.58813113 35.15743129 242.73933693 27.68994141 258.87280273 C27.26068359 259.82541992 26.83142578 260.77803711 26.38916016 261.75952148 C15.56821781 283.62484746 -5.42801496 298.873071 -27.99755859 306.74780273 C-41.14574774 310.76146047 -53.64168972 312.42338925 -67.31005859 312.87280273 C-67.31005859 311.88280273 -67.31005859 310.89280273 -67.31005859 309.87280273 C-67.97005859 309.87280273 -68.63005859 309.87280273 -69.31005859 309.87280273 C-70.14796649 308.08327088 -70.98025256 306.29110578 -71.81005859 304.49780273 C-72.27412109 303.50006836 -72.73818359 302.50233398 -73.21630859 301.47436523 C-74.31005859 298.87280273 -74.31005859 298.87280273 -74.31005859 296.87280273 C-94.44005859 296.87280273 -114.57005859 296.87280273 -135.31005859 296.87280273 C-135.31005859 276.74280273 -135.31005859 256.61280273 -135.31005859 235.87280273 C-127.15437685 235.76797392 -119.00113087 235.66780775 -110.8453598 235.61405182 C-107.047574 235.58763634 -103.25034513 235.55233438 -99.45288086 235.49560547 C-95.79591665 235.44131671 -92.13949279 235.41138946 -88.48215675 235.39841652 C-87.08621523 235.38917068 -85.69030363 235.37111514 -84.2945919 235.34415245 C-82.34130013 235.30791573 -80.38746568 235.30576083 -78.43383789 235.30517578 C-77.32131149 235.29407272 -76.2087851 235.28296967 -75.06254578 235.27153015 C-72.31005859 235.87280273 -72.31005859 235.87280273 -70.51399231 238.24104309 C-70.11669418 239.10952377 -69.71939606 239.97800446 -69.31005859 240.87280273 C-68.85244141 241.75581055 -68.39482422 242.63881836 -67.92333984 243.54858398 C-67.27945313 244.85375977 -67.27945313 244.85375977 -66.62255859 246.18530273 C-66.18556641 247.06831055 -65.74857422 247.95131836 -65.29833984 248.86108398 C-64.97220703 249.52495117 -64.64607422 250.18881836 -64.31005859 250.87280273 C-53.07069049 250.31083433 -42.19096072 246.11263703 -34.31005859 237.87280273 C-28.27683938 229.77661179 -25.61742298 220.57346859 -26.65771484 210.50952148 C-28.72588255 199.97053516 -33.29255344 190.97134668 -42.31005859 184.87280273 C-52.99036116 177.89546221 -63.40838605 175.89871543 -76.01147461 175.34716797 C-99.69501424 174.06537773 -123.44242713 164.33089884 -141.31005859 148.87280273 C-142.30005859 148.21280273 -143.29005859 147.55280273 -144.31005859 146.87280273 C-144.31005859 146.21280273 -144.31005859 145.55280273 -144.31005859 144.87280273 C-144.97005859 144.87280273 -145.63005859 144.87280273 -146.31005859 144.87280273 C-147.81787109 143.34155273 -147.81787109 143.34155273 -149.43505859 141.37280273 C-149.97388672 140.72311523 -150.51271484 140.07342773 -151.06787109 139.40405273 C-151.47779297 138.89874023 -151.88771484 138.39342773 -152.31005859 137.87280273 C-155.98841158 139.37383467 -157.90172481 141.478368 -160.43505859 144.49780273 C-178.98643925 165.45454879 -207.86245422 175.76759606 -235.31005859 177.87280273 C-239.97859216 178.00354048 -244.64391332 177.98949843 -249.31396484 177.97045898 C-250.63299301 177.96904404 -251.95202118 177.96762909 -253.3110199 177.96617126 C-256.78795325 177.96238517 -260.26484366 177.95258909 -263.74176025 177.94146729 C-267.30162984 177.93116833 -270.86150648 177.92665561 -274.42138672 177.92163086 C-281.38429479 177.91096262 -288.34717462 177.89393418 -295.31005859 177.87280273 C-295.30729321 178.52456136 -295.30452784 179.17631998 -295.30167866 179.84782887 C-295.23546564 195.6963998 -295.1858009 211.54492272 -295.15462208 227.3935976 C-295.139144 235.05785904 -295.11803664 242.72202823 -295.08374023 250.38623047 C-295.05386652 257.06527158 -295.03449043 263.74424589 -295.02779311 270.42335194 C-295.02387737 273.96089551 -295.01465562 277.49824796 -294.99286842 281.03573036 C-294.96876082 284.98186488 -294.9680873 288.92781131 -294.96948242 292.87402344 C-294.95869659 294.0507814 -294.94791077 295.22753937 -294.9367981 296.43995667 C-294.94298409 298.049039 -294.94298409 298.049039 -294.94929504 299.69062805 C-294.94514698 301.09129249 -294.94514698 301.09129249 -294.94091511 302.52025318 C-295.38033054 305.3206455 -296.050688 306.20879164 -298.31005859 307.87280273 C-300.73864746 308.25375366 -300.73864746 308.25375366 -303.65185547 308.26098633 C-304.74308716 308.27044281 -305.83431885 308.27989929 -306.95861816 308.28964233 C-308.13678101 308.28356964 -309.31494385 308.27749695 -310.52880859 308.27124023 C-312.3429425 308.2755455 -312.3429425 308.2755455 -314.19372559 308.27993774 C-316.75252754 308.28198059 -319.31134504 308.27643541 -321.87011719 308.26391602 C-325.79446214 308.24786652 -329.71777706 308.26375836 -333.64208984 308.28295898 C-336.12516504 308.28097659 -338.6082396 308.27713301 -341.09130859 308.27124023 C-342.85855286 308.28034927 -342.85855286 308.28034927 -344.66149902 308.28964233 C-345.75273071 308.28018585 -346.8439624 308.27072937 -347.96826172 308.26098633 C-348.92962036 308.25859955 -349.890979 308.25621277 -350.88146973 308.25375366 C-353.31005859 307.87280273 -353.31005859 307.87280273 -354.93929768 306.81524372 C-357.01766574 303.87008585 -356.71304591 300.88630553 -356.67082214 297.41279602 C-356.67338542 296.64660845 -356.67594869 295.88042089 -356.67858964 295.09101552 C-356.68354301 292.51586862 -356.66700937 289.94130409 -356.65063477 287.36621094 C-356.64978883 285.52342747 -356.65026298 283.68064299 -356.65196228 281.83786011 C-356.65282496 276.82777886 -356.63515514 271.81791196 -356.61424041 266.80788064 C-356.59551896 261.57482752 -356.59372675 256.34176979 -356.59016418 251.10868835 C-356.58083038 241.19581149 -356.55619853 231.28303358 -356.52611572 221.37020034 C-356.49261325 210.08619977 -356.47609615 198.80219455 -356.46102941 187.51815665 C-356.42965014 164.30298376 -356.3768637 141.08789879 -356.31005859 117.87280273 C-355.72605254 117.87041438 -355.14204649 117.86802603 -354.54034328 117.8655653 C-340.26467549 117.80617219 -325.98916107 117.73046935 -311.7136755 117.63708782 C-304.80986505 117.5923119 -297.9061041 117.55285652 -291.00219727 117.52636719 C-284.33011365 117.50075185 -277.65828201 117.45972678 -270.98633003 117.40961647 C-268.4504938 117.39302896 -265.91461921 117.38146448 -263.3787365 117.37518883 C-235.61381671 117.81151542 -235.61381671 117.81151542 -211.15380859 106.05639648 C-204.56820656 99.14988587 -202.10104417 91.8263935 -201.87255859 82.37280273 C-202.23654928 71.72072234 -204.10949288 64.9017509 -211.66943359 57.13452148 C-227.13373758 43.88920786 -247.99674725 45.40814065 -267.05224609 45.36108398 C-269.632994 45.34421492 -272.2137338 45.32606172 -274.79446411 45.3066864 C-280.85719994 45.26423473 -286.91987034 45.23458657 -292.98270619 45.21136302 C-299.89470643 45.18415568 -306.80657073 45.14025502 -313.7184732 45.0950743 C-327.91559154 45.00264026 -342.11275971 44.93077256 -356.31005859 44.87280273 C-356.3563515 37.34511494 -356.39191224 29.81744185 -356.41368294 22.28964424 C-356.42413057 18.79436346 -356.43830743 15.2991799 -356.4609375 11.80395508 C-356.48677812 7.78783218 -356.49652325 3.77181177 -356.50537109 -0.24438477 C-356.51569366 -1.50274139 -356.52601624 -2.76109802 -356.53665161 -4.05758667 C-356.53680267 -5.21863922 -356.53695374 -6.37969177 -356.53710938 -7.57592773 C-356.5415506 -8.60185028 -356.54599182 -9.62777283 -356.55056763 -10.68478394 C-356.31005859 -13.12719727 -356.31005859 -13.12719727 -354.31005859 -15.12719727 C-352.24295139 -15.38167286 -352.24295139 -15.38167286 -349.64173889 -15.38789368 C-348.16425423 -15.39852089 -348.16425423 -15.39852089 -346.65692139 -15.40936279 C-345.02934906 -15.40564667 -345.02934906 -15.40564667 -343.36889648 -15.40185547 C-341.65859505 -15.40952187 -341.65859505 -15.40952187 -339.91374207 -15.41734314 C-336.12001372 -15.43131067 -332.32646596 -15.43027486 -328.53271484 -15.42797852 C-325.89065992 -15.43186583 -323.24860562 -15.43620058 -320.60655212 -15.44096375 C-315.04880171 -15.44919306 -309.49110204 -15.44826275 -303.93334961 -15.44287109 C-297.5556768 -15.4368774 -291.17822719 -15.44901865 -284.80059248 -15.47044116 C-279.30049889 -15.48822266 -273.80047513 -15.49403143 -268.30035394 -15.49080342 C-265.02726932 -15.48901079 -261.75437502 -15.49277824 -258.48130989 -15.50551796 C-223.68924894 -15.62415405 -189.97562098 -10.25137554 -163.74365234 14.32202148 C-161.65962641 16.5064018 -160.40705135 18.10111098 -159.31005859 20.87280273 C-158.65005859 20.87280273 -157.99005859 20.87280273 -157.31005859 20.87280273 C-155.68505859 22.37280273 -155.68505859 22.37280273 -154.31005859 23.87280273 C-153.92140625 23.02588867 -153.92140625 23.02588867 -153.52490234 22.16186523 C-143.06085966 2.44505168 -121.15019808 -9.42601038 -100.81396484 -16.31079102 C-67.92795941 -26.31957528 -27.30557422 -22.27842982 0 0 Z M-124.31005859 244.87280273 C-125.14222943 255.18871799 -125.14222943 255.18871799 -125.44287109 265.45092773 C-125.44416016 266.71291992 -125.44544922 267.97491211 -125.44677734 269.27514648 C-125.44291016 270.54487305 -125.43904297 271.81459961 -125.43505859 273.12280273 C-125.43892578 274.43893555 -125.44279297 275.75506836 -125.44677734 277.11108398 C-125.44548828 278.35760742 -125.44419922 279.60413086 -125.44287109 280.88842773 C-125.44174316 282.01539063 -125.44061523 283.14235352 -125.43945312 284.3034668 C-125.60138628 286.80502378 -125.60138628 286.80502378 -124.31005859 287.87280273 C-121.28049616 287.96150915 -118.2731915 287.98806855 -115.24365234 287.97045898 C-114.03618347 287.96894836 -114.03618347 287.96894836 -112.80432129 287.96740723 C-109.78538599 287.96215888 -106.76647092 287.94819773 -103.74755859 287.93530273 C-97.00318359 287.91467773 -90.25880859 287.89405273 -83.31005859 287.87280273 C-83.31005859 273.68280273 -83.31005859 259.49280273 -83.31005859 244.87280273 C-96.84005859 244.87280273 -110.37005859 244.87280273 -124.31005859 244.87280273 Z M-72.31005859 257.87280273 C-71.31005859 259.87280273 -71.31005859 259.87280273 -71.31005859 259.87280273 Z M-71.31005859 260.87280273 C-73.60698724 263.16973138 -72.59028348 268.54160521 -72.62255859 271.62280273 C-72.6515625 272.53030273 -72.68056641 273.43780273 -72.71044922 274.37280273 C-72.75275497 278.82466908 -72.75171906 281.18596518 -70.29052734 285.01342773 C-69.63697266 285.62702148 -68.98341797 286.24061523 -68.31005859 286.87280273 C-66.0940269 273.36174246 -66.0940269 273.36174246 -70.31005859 260.87280273 C-70.64005859 260.87280273 -70.97005859 260.87280273 -71.31005859 260.87280273 Z " fill="#FDFDFD" transform="translate(415.31005859375,95.127197265625)"/>
<path d="M0 0 C10.56 0 21.12 0 32 0 C32 10.23 32 20.46 32 31 C21.44 31 10.88 31 0 31 C0 20.77 0 10.54 0 0 Z " fill="#FCFCFC" transform="translate(295,346)"/>
<path d="M0 0 C0.66 0.66 1.32 1.32 2 2 C1.45730469 2.38671875 0.91460937 2.7734375 0.35546875 3.171875 C-0.71767578 3.95304687 -0.71767578 3.95304687 -1.8125 4.75 C-2.52019531 5.26046875 -3.22789062 5.7709375 -3.95703125 6.296875 C-6.02977691 8.02482358 -7.47375854 9.78526476 -9 12 C-9.66 11.67 -10.32 11.34 -11 11 C-9.54540569 9.35086118 -8.08620743 7.70578218 -6.625 6.0625 C-5.81289063 5.14597656 -5.00078125 4.22945313 -4.1640625 3.28515625 C-2 1 -2 1 0 0 Z " fill="#DDDBD8" transform="translate(276,101)"/>
<path d="" fill="#FFFFFF" transform="translate(0,0)"/>
</svg>
